<?xml version="1.0" standalone="no"?>
<!DOCTYPE svg PUBLIC "-//W3C//DTD SVG 20010904//EN"
 "http://www.w3.org/TR/2001/REC-SVG-20010904/DTD/svg10.dtd">
<svg version="1.0" xmlns="http://www.w3.org/2000/svg"
 width="2084.000000pt" height="2084.000000pt" viewBox="0 0 2084.000000 2084.000000"
 preserveAspectRatio="xMidYMid meet">
<metadata>
Created by potrace 1.14, written by Peter Selinger 2001-2017
</metadata>
<g transform="translate(0.000000,2084.000000) scale(0.100000,-0.100000)"
fill="#000000" stroke="none">
<path d="M10969 19863 c0 -5 -2 -15 -4 -23 -6 -34 -58 -327 -60 -347 -2 -11
-5 -29 -9 -40 -3 -10 -8 -38 -11 -63 -3 -25 -8 -52 -10 -60 -4 -14 -61 -334
-70 -390 -2 -14 -20 -113 -39 -220 -20 -107 -38 -211 -41 -230 -3 -19 -8 -48
-12 -65 -3 -16 -7 -39 -9 -50 -1 -11 -10 -60 -19 -110 -23 -131 -24 -138 -29
-163 -3 -13 -14 -78 -26 -145 -11 -67 -25 -142 -30 -167 -5 -25 -12 -62 -15
-82 -2 -21 -9 -57 -14 -80 -5 -24 -12 -59 -15 -78 -3 -19 -17 -100 -31 -180
-14 -80 -28 -160 -31 -179 -3 -18 -8 -43 -10 -55 -2 -11 -8 -46 -14 -76 -6
-30 -12 -64 -14 -75 -2 -11 -7 -40 -11 -65 -4 -25 -9 -52 -10 -60 -2 -8 -10
-53 -19 -100 -8 -47 -18 -101 -21 -120 -3 -19 -15 -84 -25 -145 -11 -60 -22
-123 -24 -140 -12 -70 -17 -99 -20 -104 -2 -3 -7 -26 -10 -51 -6 -46 -11 -74
-22 -123 -3 -16 -7 -38 -9 -50 -3 -23 -30 -178 -90 -512 -19 -104 -37 -206
-40 -225 -5 -34 -15 -84 -55 -303 -11 -59 -20 -111 -20 -115 -1 -7 -40 103
-145 408 -30 85 -90 261 -135 390 -45 129 -104 300 -132 380 -99 289 -139 405
-145 420 -3 8 -7 20 -9 25 -1 6 -28 82 -59 170 -31 88 -58 167 -60 175 -2 8
-25 74 -50 145 -26 72 -57 162 -70 200 -13 39 -40 115 -59 170 -54 156 -199
574 -296 855 -48 140 -123 354 -165 475 -42 121 -84 245 -94 275 -10 30 -56
161 -101 290 -45 129 -98 283 -118 342 -20 59 -40 105 -44 102 -6 -4 -153 -55
-673 -234 -138 -47 -559 -194 -665 -231 -30 -11 -62 -21 -70 -24 -17 -5 -665
-230 -703 -244 l-26 -10 49 -143 c27 -79 87 -255 135 -393 173 -499 264 -763
315 -910 28 -82 55 -159 60 -170 4 -11 24 -67 43 -125 20 -58 72 -211 117
-340 45 -129 101 -291 124 -360 24 -69 56 -159 70 -200 15 -41 40 -113 56
-160 16 -47 61 -177 100 -290 39 -113 80 -230 90 -260 15 -45 92 -267 164
-472 15 -43 7 -41 -38 10 -16 18 -41 46 -55 62 -32 34 -51 55 -226 250 -76 85
-155 173 -174 194 -132 145 -226 248 -244 270 -10 11 -51 57 -91 101 -40 44
-117 130 -171 190 -54 61 -115 128 -136 150 -20 22 -57 63 -82 90 -24 28 -68
77 -98 110 -30 33 -70 78 -89 99 -19 22 -48 54 -65 71 -16 17 -45 49 -64 71
-19 21 -70 79 -115 128 -45 49 -89 98 -99 110 -16 18 -86 96 -167 186 -45 49
-94 104 -175 195 -44 49 -87 96 -95 105 -31 34 -89 99 -184 205 -54 61 -104
115 -110 120 -6 6 -23 24 -37 41 l-26 31 -94 -85 c-52 -47 -130 -117 -174
-157 -44 -40 -100 -90 -125 -113 -25 -22 -55 -49 -66 -59 -12 -10 -64 -56
-115 -103 -51 -47 -120 -110 -154 -139 -33 -30 -76 -69 -95 -87 -43 -39 -69
-62 -167 -150 -42 -38 -84 -76 -93 -84 -9 -8 -36 -33 -61 -55 -24 -22 -87 -79
-139 -126 -52 -47 -164 -148 -248 -223 -84 -76 -152 -141 -150 -146 2 -4 39
-47 83 -95 44 -49 88 -97 98 -109 10 -12 51 -57 90 -100 40 -44 80 -89 90
-100 16 -18 141 -157 172 -190 6 -6 50 -56 100 -111 49 -55 96 -107 105 -116
8 -9 47 -51 85 -94 39 -43 91 -102 116 -129 25 -28 72 -80 104 -116 32 -36 93
-103 135 -150 43 -47 92 -103 111 -125 19 -21 45 -50 59 -65 14 -14 66 -70
115 -125 122 -137 138 -155 247 -275 52 -58 107 -120 124 -138 16 -19 45 -51
64 -71 38 -41 174 -191 203 -225 19 -21 153 -170 172 -190 6 -6 66 -74 135
-151 69 -77 127 -142 130 -145 3 -3 23 -25 45 -48 l40 -43 -85 39 c-156 72
-204 94 -290 132 -87 38 -150 67 -275 125 -38 18 -92 42 -120 55 -27 12 -77
35 -110 50 -33 16 -100 46 -150 68 -49 22 -130 58 -178 81 -49 22 -91 41 -92
41 -2 0 -46 20 -97 44 -51 24 -131 60 -178 81 -47 21 -119 53 -160 72 -41 19
-120 55 -175 80 -55 24 -129 58 -165 75 -36 17 -105 48 -155 70 -49 22 -127
57 -173 79 -46 21 -85 39 -87 39 -2 0 -36 15 -77 34 -40 19 -125 58 -188 86
-63 29 -135 62 -160 73 -25 12 -47 22 -50 22 -3 1 -45 20 -94 43 -49 23 -90
42 -92 42 -1 0 -42 18 -91 41 -284 132 -284 132 -299 112 -7 -10 -14 -22 -14
-26 0 -5 -14 -39 -31 -75 -17 -37 -71 -155 -119 -262 -48 -107 -101 -224 -118
-260 -16 -36 -42 -92 -57 -125 -15 -33 -85 -187 -156 -343 -71 -156 -129 -285
-129 -287 0 -2 -22 -50 -49 -107 -26 -57 -65 -141 -86 -188 -44 -99 -78 -174
-129 -283 -20 -43 -36 -82 -36 -86 0 -5 57 -34 127 -66 71 -32 160 -73 198
-90 39 -18 162 -74 275 -125 113 -51 237 -107 275 -125 39 -18 237 -108 440
-200 204 -92 408 -185 453 -206 46 -22 86 -39 87 -39 4 0 141 -63 220 -100 22
-11 65 -30 95 -43 30 -13 80 -36 110 -49 30 -14 78 -36 105 -48 28 -13 84 -38
125 -57 85 -39 95 -44 315 -143 88 -40 185 -83 215 -97 53 -25 121 -55 225
-103 28 -12 98 -44 157 -71 59 -27 112 -49 116 -49 5 0 15 -6 21 -14 9 -11 4
-13 -26 -11 -21 2 -213 6 -428 10 -542 9 -765 13 -1095 19 -157 4 -420 8 -585
11 -165 3 -403 7 -530 10 -126 3 -378 7 -560 10 -181 3 -401 7 -488 9 -107 3
-159 1 -164 -7 -4 -6 -8 -58 -9 -116 -1 -59 -5 -288 -9 -511 -10 -591 -17
-949 -29 -1527 l-2 -103 26 -1 c59 -3 764 -18 1165 -24 138 -3 369 -7 515 -9
146 -3 407 -8 580 -11 1112 -20 1682 -31 1715 -34 11 -1 -20 -19 -70 -40 -49
-22 -164 -70 -255 -109 -226 -96 -473 -200 -1100 -467 -795 -338 -923 -392
-1055 -447 -66 -28 -148 -63 -183 -79 -35 -16 -67 -29 -71 -29 -4 0 -25 -8
-47 -19 -21 -10 -100 -44 -174 -76 -74 -31 -148 -63 -165 -70 -16 -8 -95 -41
-175 -75 -79 -34 -146 -63 -149 -65 -4 -5 10 -42 45 -120 12 -27 66 -153 119
-280 197 -466 527 -1243 561 -1320 7 -16 43 -102 80 -190 36 -88 70 -164 75
-169 6 -7 165 53 324 124 47 21 121 52 280 120 94 40 181 77 195 83 14 6 27
11 30 12 11 4 57 24 100 43 25 11 90 39 145 62 55 23 114 47 130 55 17 7 134
57 260 110 225 95 262 110 328 139 17 8 124 54 237 101 865 367 906 384 975
415 87 39 429 180 431 177 3 -3 -28 -38 -150 -167 -33 -36 -115 -124 -181
-195 -66 -72 -154 -166 -195 -210 -42 -44 -93 -100 -115 -124 -52 -56 -74 -80
-170 -182 -44 -47 -123 -132 -175 -189 -52 -56 -108 -117 -125 -135 -55 -59
-250 -267 -280 -300 -36 -38 -221 -238 -259 -280 -15 -16 -78 -84 -139 -150
-230 -245 -253 -271 -312 -334 -33 -36 -71 -77 -85 -92 -14 -14 -50 -53 -80
-86 -30 -32 -102 -110 -160 -172 -58 -62 -108 -119 -112 -126 -5 -8 9 -28 40
-55 26 -23 96 -88 156 -144 159 -148 178 -166 242 -225 33 -30 88 -81 124
-115 91 -85 185 -173 324 -301 65 -61 135 -126 156 -145 123 -115 267 -249
294 -274 57 -52 270 -251 288 -269 10 -9 22 -17 27 -17 5 0 58 53 117 117 60
64 120 128 134 143 89 95 169 182 270 290 63 69 134 144 157 168 23 24 56 60
74 80 18 20 85 93 149 162 65 69 134 143 155 165 20 22 60 65 88 95 158 170
268 288 292 315 15 17 80 86 145 155 64 69 141 152 171 184 30 33 68 74 84 91
17 18 57 61 89 96 33 35 112 120 176 189 64 69 128 137 141 151 47 51 224 242
238 256 7 8 15 12 17 10 2 -2 -60 -183 -137 -403 -77 -219 -155 -442 -173
-494 -55 -157 -182 -519 -214 -610 -68 -194 -165 -470 -188 -540 -14 -41 -29
-84 -34 -95 -5 -11 -12 -31 -15 -45 -4 -14 -13 -38 -20 -55 -7 -16 -38 -102
-68 -190 -31 -88 -126 -360 -211 -605 -86 -245 -156 -450 -156 -455 0 -6 37
-23 83 -38 45 -16 249 -87 452 -159 204 -71 404 -141 445 -154 41 -14 84 -30
95 -34 11 -5 47 -18 80 -29 33 -11 119 -41 190 -66 72 -26 148 -52 170 -60 22
-7 119 -41 215 -75 347 -122 375 -132 391 -137 15 -4 18 1 56 107 6 18 95 269
186 530 36 102 90 257 122 345 31 88 58 165 59 170 2 6 6 17 9 25 10 26 147
419 199 570 27 80 53 154 58 165 5 11 23 61 39 110 17 50 53 155 82 235 61
175 157 446 249 710 37 107 74 211 80 230 7 19 39 109 71 200 31 91 105 301
163 468 246 703 318 908 325 920 8 14 2 33 121 -338 50 -157 118 -366 150
-465 53 -162 193 -595 314 -970 24 -77 49 -153 55 -170 12 -37 183 -567 326
-1010 58 -181 112 -348 120 -370 7 -22 50 -155 95 -295 45 -140 92 -286 105
-325 13 -38 62 -191 110 -340 47 -148 90 -281 95 -295 5 -14 30 -90 55 -170
26 -80 50 -148 54 -153 7 -7 73 13 726 224 187 61 486 158 665 215 179 58 338
110 355 115 33 11 50 -3 62 -48 3 -13 9 -23 14 -23 5 0 9 -7 9 -15 0 -19 9
-19 45 3 17 10 116 63 220 117 105 54 235 121 290 150 55 29 163 85 240 125
77 40 178 93 225 118 47 24 150 78 230 119 227 118 409 212 485 253 39 20 117
61 175 91 58 29 107 54 108 55 2 1 -24 56 -58 121 -75 142 -153 290 -250 478
-40 77 -94 181 -120 230 -26 50 -80 153 -120 230 -40 77 -98 190 -130 250 -32
61 -90 173 -130 250 -40 77 -96 185 -125 240 -70 134 -177 339 -265 510 -40
77 -92 176 -115 220 -48 90 -128 245 -265 510 l-93 179 43 -34 c35 -27 476
-384 830 -670 24 -19 73 -59 109 -88 36 -29 73 -58 81 -65 8 -7 71 -57 140
-112 69 -55 127 -102 130 -105 3 -3 86 -71 185 -150 99 -79 185 -149 191 -155
6 -5 28 -23 50 -40 21 -16 56 -45 78 -63 23 -18 48 -39 56 -45 8 -7 132 -107
275 -222 143 -115 265 -214 272 -220 46 -41 337 -270 343 -270 8 0 237 280
609 745 64 80 118 147 121 150 5 5 54 65 315 390 55 69 102 127 105 130 3 3
59 72 125 155 66 82 126 156 133 165 7 8 13 18 15 21 1 4 -74 68 -168 144 -93
75 -188 152 -210 170 -22 18 -105 85 -185 149 -80 64 -152 122 -160 129 -8 7
-62 50 -120 97 -58 47 -112 90 -120 97 -8 7 -69 56 -135 109 -66 52 -129 103
-140 112 -11 10 -42 35 -70 57 -27 22 -59 47 -70 57 -19 15 -92 75 -125 101
-356 287 -567 457 -695 560 -88 71 -176 142 -195 158 -19 15 -69 55 -110 89
-41 33 -85 69 -97 79 -12 10 -72 58 -133 107 -60 48 -109 89 -107 90 4 4 40
-5 272 -69 110 -31 283 -78 385 -106 102 -28 208 -58 235 -66 49 -14 130 -36
150 -41 6 -1 53 -14 105 -28 100 -28 251 -70 385 -106 44 -12 112 -30 150 -41
86 -25 175 -49 195 -54 8 -2 42 -11 75 -20 33 -9 67 -18 75 -20 8 -3 47 -13
85 -24 214 -60 592 -163 606 -166 9 -2 47 -12 85 -24 38 -11 119 -34 179 -50
61 -16 193 -53 295 -80 102 -28 190 -51 197 -51 7 0 15 12 19 28 3 15 22 81
40 148 19 67 36 130 39 140 2 10 34 127 70 259 37 132 68 247 70 255 2 8 27
98 55 200 28 102 78 282 110 400 32 118 75 274 95 345 20 72 47 171 60 220 14
50 31 111 39 138 8 26 11 49 8 51 -6 3 -141 42 -182 51 -15 4 -236 65 -750
207 -140 38 -262 72 -270 73 -14 3 -190 52 -270 75 -70 20 -334 93 -765 211
-242 66 -465 127 -495 135 -30 9 -102 29 -160 44 -226 61 -588 160 -635 174
-27 8 -70 20 -95 27 l-45 12 35 8 c19 4 62 11 95 14 33 4 62 8 65 10 3 2 30 6
60 9 30 4 78 11 105 16 28 5 71 11 96 15 25 3 57 8 70 10 13 2 60 9 104 15 44
7 87 14 96 15 9 2 40 6 69 10 29 4 60 8 69 10 34 6 128 20 201 30 25 3 70 10
100 15 30 5 75 12 100 15 25 3 57 8 73 11 67 10 89 14 195 29 62 9 123 18 135
21 12 2 42 6 67 9 45 5 87 12 125 19 11 2 42 7 68 10 27 4 56 9 65 11 10 1 40
6 67 9 28 4 64 9 80 12 17 2 44 6 60 8 17 3 46 7 65 10 19 3 51 8 70 10 19 3
46 7 60 10 14 2 46 7 71 10 25 4 57 8 70 10 13 3 47 8 74 12 28 4 55 8 60 9 6
1 33 5 60 9 28 3 61 8 75 10 44 8 174 28 200 31 48 6 144 21 198 29 39 7 112
17 147 22 29 3 94 13 126 19 9 2 40 6 69 10 29 4 60 8 69 10 9 1 52 8 96 15
44 6 89 13 100 15 11 2 26 4 33 4 8 1 10 9 7 24 -3 12 -7 38 -10 57 -2 19 -11
82 -20 140 -9 58 -18 121 -21 140 -3 19 -11 76 -19 125 -13 86 -42 277 -51
340 -2 17 -7 48 -9 70 -3 22 -7 51 -10 65 -3 14 -8 43 -10 65 -3 22 -8 52 -11
67 -5 28 -10 59 -19 142 -3 27 -7 52 -9 55 -2 3 -7 33 -11 66 -4 33 -9 69 -10
80 -2 11 -11 67 -19 125 -9 58 -18 121 -21 140 -3 19 -12 76 -20 125 -7 50
-17 110 -20 135 -20 141 -43 281 -46 284 -2 3 -25 0 -50 -4 -26 -5 -69 -12
-95 -15 -27 -3 -74 -10 -104 -15 -30 -5 -71 -12 -90 -14 -19 -3 -48 -7 -65
-10 -16 -3 -50 -8 -75 -11 -25 -3 -70 -10 -100 -15 -30 -5 -75 -12 -100 -15
-25 -3 -56 -8 -70 -10 -14 -2 -45 -6 -70 -10 -25 -3 -56 -8 -70 -10 -38 -7
-71 -12 -260 -40 -96 -14 -184 -27 -195 -29 -20 -3 -84 -13 -155 -22 -19 -3
-46 -7 -60 -9 -27 -5 -45 -8 -165 -25 -44 -7 -87 -13 -95 -15 -8 -1 -40 -6
-70 -10 -30 -4 -64 -9 -75 -11 -25 -5 -83 -13 -127 -19 -20 -3 -78 -11 -129
-19 -52 -8 -114 -18 -139 -21 -25 -3 -56 -8 -70 -10 -14 -2 -72 -11 -130 -20
-58 -9 -116 -18 -130 -20 -28 -4 -104 -16 -135 -20 -23 -3 -113 -16 -135 -20
-8 -2 -40 -6 -70 -10 -30 -4 -64 -9 -75 -11 -10 -2 -37 -6 -60 -9 -22 -4 -80
-13 -130 -20 -49 -8 -112 -17 -140 -21 -27 -3 -59 -8 -70 -10 -11 -2 -40 -6
-65 -10 -25 -3 -70 -9 -100 -14 -160 -26 -164 -33 65 113 116 73 372 236 570
362 198 125 403 256 455 290 100 64 302 193 370 235 23 14 125 79 228 144 103
66 261 167 352 224 91 58 201 128 245 157 44 28 274 175 512 325 l432 275 -22
35 c-12 20 -47 76 -77 124 -63 99 -55 87 -175 275 -49 78 -101 159 -115 181
-14 22 -77 121 -140 220 -63 99 -122 191 -130 205 -22 36 -552 869 -556 874
-2 3 -482 -299 -754 -474 -133 -86 -991 -631 -1038 -660 -28 -16 -60 -37 -73
-46 -13 -9 -94 -61 -179 -114 -85 -54 -194 -123 -242 -154 -48 -31 -120 -77
-160 -102 -110 -70 -847 -538 -891 -566 l-38 -24 18 28 c10 15 81 123 157 238
77 116 214 323 304 460 286 433 510 773 657 995 78 118 253 384 390 590 136
206 299 452 360 545 62 94 162 246 223 338 l112 169 -133 87 c-72 48 -244 162
-382 253 -137 90 -385 254 -550 364 -165 109 -304 201 -310 204 -5 3 -125 81
-265 174 -239 159 -255 167 -268 150 -13 -17 -226 -340 -628 -950 -84 -126
-280 -422 -436 -659 -156 -236 -333 -504 -393 -595 -336 -510 -639 -966 -647
-975 -7 -7 -8 1 -4 25 4 19 11 60 17 90 5 30 11 66 14 80 3 14 7 39 10 55 3
17 7 44 10 60 3 17 8 46 11 65 3 19 7 42 9 50 3 8 7 33 10 55 4 22 8 47 10 55
3 8 7 33 10 55 4 22 17 99 30 170 14 72 27 145 30 163 8 50 12 72 54 307 22
121 42 236 45 255 3 19 8 46 11 60 3 14 12 66 21 115 8 50 17 101 20 115 43
237 77 427 144 810 17 96 37 209 45 250 8 41 16 91 19 110 3 19 19 109 36 200
17 91 33 179 36 195 2 17 11 66 19 110 8 44 17 94 19 110 3 17 16 93 30 170
13 77 27 156 30 175 4 19 10 55 15 80 19 90 19 100 2 101 -18 1 -25 2 -171 29
-58 11 -123 22 -145 26 -22 3 -71 12 -110 19 -38 8 -86 16 -105 19 -19 3 -48
8 -65 11 -111 21 -195 36 -229 41 -21 3 -48 8 -60 10 -30 7 -295 54 -336 60
-19 3 -66 12 -105 19 -38 8 -86 16 -105 19 -19 3 -48 8 -65 11 -16 3 -77 14
-135 25 -117 21 -180 32 -195 35 -5 2 -28 6 -50 9 -43 7 -98 16 -130 23 -11 2
-36 6 -55 9 -19 3 -53 10 -75 15 -49 11 -85 11 -86 2z"/>
</g>
</svg>
